M48
;GenerationSoftware,Autodesk,EAGLE,9.7.0*%
;CreationDate,2023-10-23T13:57:53Z*%
FMAT,2
ICI,OFF
METRIC,TZ,000.000
T5C0.813
T4C0.910
T3C1.016
T2C3.100
T1C3.200
%
G90
M71
T1
X8600Y38360
X2800Y38360
X5600Y33560
T2
X-1000Y75000
X124000Y75000
X-1000Y4000
X124000Y4000
T3
X11730Y3540
X14270Y3540
T4
X55000Y28412
X57540Y28412
X55000Y38413
X57540Y38413
X55000Y48412
X57540Y48412
X55000Y58412
X57540Y58412
X55000Y68413
X57540Y68413
X85000Y8413
X87540Y8413
X85000Y18413
X87540Y18413
X85000Y28412
X87540Y28412
X85000Y38413
X87540Y38413
X85000Y48412
X87540Y48412
X35000Y18413
X37540Y18413
X85000Y58412
X87540Y58412
X85000Y68413
X87540Y68413
X105000Y8413
X107540Y8413
X105000Y18413
X107540Y18413
X105000Y28412
X107540Y28412
X105000Y38413
X107540Y38413
X105000Y48412
X107540Y48412
X105000Y58412
X107540Y58412
X105000Y68413
X107540Y68413
X35000Y28412
X37540Y28412
X25000Y8413
X27540Y8413
X25000Y18413
X27540Y18413
X25000Y28412
X27540Y28412
X25000Y38413
X27540Y38413
X35000Y38413
X37540Y38413
X25000Y48412
X27540Y48412
X25000Y58412
X27540Y58412
X25000Y68413
X27540Y68413
X45000Y8413
X47540Y8413
X45000Y18413
X47540Y18413
X45000Y28412
X47540Y28412
X45000Y38413
X47540Y38413
X45000Y48412
X47540Y48412
X45000Y58412
X47540Y58412
X45000Y68413
X47540Y68413
X35000Y48412
X37540Y48412
X75000Y8413
X77540Y8413
X75000Y18413
X77540Y18413
X75000Y28412
X77540Y28412
X75000Y38413
X77540Y38413
X75000Y48412
X77540Y48412
X75000Y58412
X77540Y58412
X75000Y68413
X77540Y68413
X95000Y8413
X97540Y8413
X95000Y18413
X97540Y18413
X95000Y28412
X97540Y28412
X35000Y58412
X37540Y58412
X95000Y38413
X97540Y38413
X95000Y48412
X97540Y48412
X95000Y58412
X97540Y58412
X95000Y68413
X97540Y68413
X35000Y8413
X117540Y8413
X115000Y18413
X117540Y18413
X115000Y28412
X117540Y28412
X115000Y38413
X117540Y38413
X115000Y48412
X117540Y48412
X115000Y58412
X117540Y58412
X35000Y68413
X37540Y68413
X115000Y68413
X117540Y68413
X65000Y8413
X67540Y8413
X65000Y18413
X115000Y8413
X55000Y8413
X57540Y8413
X65000Y28412
X67540Y28412
X65000Y38413
X67540Y38413
X65000Y48412
X67540Y48412
X65000Y58412
X67540Y58412
X65000Y68413
X67540Y68413
X55000Y18413
X57540Y18413
X37540Y8413
X67540Y18413
T5
X15200Y11000
X10000Y11000
X12600Y11000
M30